<svg width="11" height="11" viewBox="0 0 11 11" fill="none" xmlns="http://www.w3.org/2000/svg">
<circle cx="5.5" cy="5.5" r="5.5" fill="#EDEDED"/>
<path d="M5.07411 6.38164C5.07411 6.19291 5.10503 6.02576 5.16689 5.88017C5.23437 5.73458 5.3159 5.60517 5.41149 5.49193C5.51271 5.3787 5.61955 5.27355 5.73201 5.17649C5.84447 5.07943 5.9485 4.98777 6.04409 4.90149C6.14531 4.80983 6.22684 4.71546 6.2887 4.6184C6.35618 4.52135 6.38991 4.4135 6.38991 4.29487C6.38991 4.10076 6.30557 3.94438 6.13687 3.82576C5.9738 3.70713 5.7545 3.64782 5.47897 3.64782C5.21468 3.64782 4.97851 3.70174 4.77046 3.80958C4.5624 3.91203 4.3909 4.05762 4.25595 4.24635L3.23535 3.67208C3.46028 3.34316 3.77236 3.08164 4.1716 2.88752C4.57084 2.68801 5.05443 2.58826 5.62236 2.58826C6.04409 2.58826 6.41522 2.64757 6.73574 2.7662C7.05625 2.87943 7.30648 3.04659 7.48642 3.26767C7.67198 3.48875 7.76476 3.76105 7.76476 4.08458C7.76476 4.29487 7.73102 4.4809 7.66355 4.64267C7.59607 4.80443 7.50891 4.94463 7.40207 5.06326C7.29523 5.18188 7.17996 5.29242 7.05625 5.39487C6.93817 5.49733 6.8257 5.59708 6.71887 5.69414C6.61203 5.7912 6.52206 5.89365 6.44896 6.00149C6.38148 6.10933 6.34774 6.23605 6.34774 6.38164H5.07411ZM5.71514 8.41179C5.47897 8.41179 5.28497 8.33899 5.13315 8.1934C4.98133 8.04782 4.90541 7.87527 4.90541 7.67576C4.90541 7.47085 4.98133 7.301 5.13315 7.1662C5.28497 7.026 5.47897 6.9559 5.71514 6.9559C5.95693 6.9559 6.15093 7.026 6.29713 7.1662C6.44896 7.301 6.52487 7.47085 6.52487 7.67576C6.52487 7.87527 6.44896 8.04782 6.29713 8.1934C6.15093 8.33899 5.95693 8.41179 5.71514 8.41179Z" fill="#B4B4B4"/>
</svg>
